@startuml Aufgabe_1a
'Manual Master zur pflege von Anleitungen und der Umsetzung von Abläufen zur Erstellung und Freigabe von Anleitungen.
'Beziehungen des Systems
class Produkt {
    String name
}
class Anleitung {
    Status sprachlichFreigegeben
    Status technischFreigegeben
    Benutzer ersteller
    Blob datei
}
class Land {
    String name
}
class Sprache {
    String name
}

abstract Status {
    String grund
}
class Zurückweisung
class Freigabe
class Sperre
class Land_Sprach_Kombination

'Beziehungen der Benutzer
'TODO: Landsprachkombinationen hinzufügen als element
class Benutzer {
    String name
    anmelden()
}
abstract Rolle
class ProduktManager {
    addProdukt(String name)
    editProdukt(Produkt produkt)
    getStatusÜbersetzungen()
    setSperre(Produkt produkt, Bool gesperrt)
}
class Übersetzer {
    getStatusÜbersetzungen()
    getZurückweisungen()
    uploadAnleitung(Blob datei, Land land, Sprache sprache)
}
class Fachprüfer {
    getAnleitungen()
    setAnleitungFreigegeben(Anleitung anleitung)
    setAnleitungFreigegeben(Anleitung anleitung, String grund)
    setAnleitungZurückgewiesen(Anleitung anleitung, String grund)
}
class Sprachprüfer {
    getAnleitungen()
    setAnleitungFreigegeben(Anleitung anleitung)
    setAnleitungFreigegeben(Anleitung anleitung, String grund)
    setAnleitungZurückgewiesen(Anleitung anleitung, String grund)
}


class Administrator {
    String name
    anmelden()
    addLand()
    editLand(Land land)
    addSprache()
    editSprache(Sprache sprache)
    editUser(String name, Bool[] rollen)
    exportBericht()
    deleteÜbersetzung(Anleitung anleitung)
    deleteProdukt(Produkt produkt)
}

'Beziehungen
Status <|-- Zurückweisung
Status <|-- Freigabe
Rolle <|-- ProduktManager
Rolle <|-- Übersetzer
Rolle <|-- Fachprüfer
Rolle <|-- Sprachprüfer

Produkt "0..*" -- "1..*" Land : vertrieben
Land_Sprach_Kombination "1" o-- "1" Land
Land_Sprach_Kombination "1" o-- "1" Sprache
Anleitung "1" -- "1" Land_Sprach_Kombination : verfasstIn
Produkt "1" *-- "0..1" Sperre
Produkt "1" *-- "1..*" Anleitung
Benutzer "0..*" *-- "0..4" Rolle

ProduktManager "1" -- "0..*" Sperre : erstellt
Übersetzer "0..*" -- "0..*" Land_Sprach_Kombination : übersetztFür
Übersetzer "1" -- "0..*" Anleitung : lädtHoch
Fachprüfer "1..*" -- "1" Produkt : prüft
Sprachprüfer "1..*" -- "1" Sprache : prüft
Anleitung "1" *-- "0..2" Status

'Sehr unübersichtlich damit!
'Administrator "1" -- "0..*" Land : verwaltet
'Administrator "1" -- "0..*" Sprache : verwaltet
'Administrator "1" -- "0..*" Benutzer : verwaltet
'Administrator "1" -- "0..*" Produkt : verwaltet
'Administrator "1" -- "0..*" Anleitung : verwaltet

@enduml